<mxfile host="app.diagrams.net" modified="2023-10-04T16:25:36.595Z" agent="Mozilla/5.0 (Windows NT 10.0; Win64; x64) AppleWebKit/537.36 (KHTML, like Gecko) Chrome/117.0.0.0 Safari/537.36" version="22.0.0" etag="k_YCJuTSPUPXgh1SrB3Y" type="github">
  <diagram name="Page-1" id="60hsWlKGKK6BvUsn6_c-">
    <mxGraphModel>
      <root>
        <mxCell id="0" />
        <mxCell id="1" parent="0" />
      </root>
    </mxGraphModel>
  </diagram>
</mxfile>
